<svg xmlns="http://www.w3.org/2000/svg" xmlns:xlink="http://www.w3.org/1999/xlink" width="304.571" height="197.259" viewBox="0 0 304.571 197.259">
    <defs>
        <style>
            .cls-1,.cls-4{fill:#6c63ff}.cls-1,.cls-5{opacity:.1}.cls-2{opacity:.2}.cls-3{fill:#3f3d56}.cls-6{fill:url(#linear-gradient)}.cls-7{fill:#fff}.cls-8{fill:#ededf4}.cls-9{fill:#fa5959}.cls-10,.cls-11,.cls-9{opacity:.8}.cls-10{fill:#fed253}.cls-11{fill:#8ccf4d}.cls-12{fill:url(#linear-gradient-2)}.cls-13{fill:url(#linear-gradient-3)}.cls-14{fill:#a1616a}
        </style>
        <linearGradient id="linear-gradient" x1=".5" x2=".5" y1="1" gradientUnits="objectBoundingBox">
            <stop offset="0" stop-color="gray" stop-opacity=".251"/>
            <stop offset=".54" stop-color="gray" stop-opacity=".122"/>
            <stop offset="1" stop-color="gray" stop-opacity=".102"/>
        </linearGradient>
        <linearGradient id="linear-gradient-2" x1="-18.117" x2="-18.117" y1="168.355" y2="167.355" xlink:href="#linear-gradient"/>
        <linearGradient id="linear-gradient-3" xlink:href="#linear-gradient"/>
    </defs>
    <g id="undraw_about_me_wa29" transform="translate(-.102 -.095)">
        <ellipse id="Ellipse_66" cx="141.172" cy="8.089" class="cls-1" data-name="Ellipse 66" rx="141.172" ry="8.089" transform="translate(5.232 181.175)"/>
        <g id="Group_2425" class="cls-2" data-name="Group 2425" transform="translate(257.88 124.842)">
            <path id="Path_331" d="M1009.236 784.831a4.619 4.619 0 0 1-.451.7q-2.255-1.589-4.585-3.113a6.21 6.21 0 0 1 .1-.2 4.393 4.393 0 0 1 1.566-1.7 2.617 2.617 0 0 1 2.609-.224 2.659 2.659 0 0 1 1.289 2.291 4.394 4.394 0 0 1-.528 2.246z" class="cls-3" data-name="Path 331" transform="translate(-1004.2 -720.046)"/>
            <ellipse id="Ellipse_67" cx="3.656" cy="2.792" class="cls-3" data-name="Ellipse 67" rx="3.656" ry="2.792" transform="rotate(-62.09 51.307 30.33)"/>
            <ellipse id="Ellipse_68" cx="3.656" cy="2.792" class="cls-3" data-name="Ellipse 68" rx="3.656" ry="2.792" transform="rotate(-62.09 49.072 26.618)"/>
            <ellipse id="Ellipse_69" cx="3.656" cy="2.792" class="cls-3" data-name="Ellipse 69" rx="3.656" ry="2.792" transform="rotate(-62.09 46.837 22.904)"/>
            <ellipse id="Ellipse_70" cx="3.656" cy="2.792" class="cls-3" data-name="Ellipse 70" rx="3.656" ry="2.792" transform="rotate(-62.09 44.6 19.19)"/>
            <path id="Path_332" d="M1021.085 565.9a13.537 13.537 0 0 1-.2-1.827l7.045 2.369-7.046-3.653a13.413 13.413 0 0 1 4.757-9.512l6.813 9.879-5.3-10.978a13.381 13.381 0 1 1 12.526 23.577 13.34 13.34 0 0 1 .209 2.87l-10.738-.083 10.574 1.741a13.4 13.4 0 0 1-7.787 10.093 13.381 13.381 0 1 1-18.587-9.843 13.384 13.384 0 0 1 7.742-14.613z" class="cls-4" data-name="Path 332" transform="translate(-1005.076 -550.143)"/>
            <path id="Path_333" d="M1038.316 668.1a13.307 13.307 0 0 1-6.4 5.97 13.381 13.381 0 1 1-18.587-9.843c-.52-2.852 25.692 2.547 24.987 3.873z" class="cls-5" data-name="Path 333" transform="translate(-1005.061 -633.852)"/>
        </g>
        <g id="Group_2426" class="cls-2" data-name="Group 2426" transform="translate(242.349 1.649)">
            <path id="Path_334" d="M967.085 475.058a8.252 8.252 0 0 1-.587 1.211q-3.943-2.1-7.988-4.086a5.2 5.2 0 0 1 .123-.342 7.1 7.1 0 0 1 2.167-3.041 3.936 3.936 0 0 1 6.7 2.539 7.1 7.1 0 0 1-.415 3.719z" class="cls-3" data-name="Path 334" transform="translate(-954.902 -366.009)"/>
            <ellipse id="Ellipse_71" cx="5.921" cy="4.522" class="cls-3" data-name="Ellipse 71" rx="5.921" ry="4.522" transform="rotate(-69.16 77.948 49.233)"/>
            <ellipse id="Ellipse_72" cx="5.921" cy="4.522" class="cls-3" data-name="Ellipse 72" rx="5.921" ry="4.522" transform="rotate(-69.16 74.333 43.985)"/>
            <ellipse id="Ellipse_73" cx="5.921" cy="4.522" class="cls-3" data-name="Ellipse 73" rx="5.921" ry="4.522" transform="rotate(-69.16 70.714 38.74)"/>
            <ellipse id="Ellipse_74" cx="5.921" cy="4.522" class="cls-3" data-name="Ellipse 74" rx="5.921" ry="4.522" transform="rotate(-69.16 67.1 33.494)"/>
            <path id="Path_335" d="M964.725 106.131a21.759 21.759 0 0 1-.691-2.917l11.8 2.4-12.045-4.483a21.687 21.687 0 0 1 5.717-16.179l12.932 14.472-10.7-16.578a21.659 21.659 0 1 1 24.813 35.384 21.77 21.77 0 0 1 .9 4.569l-17.267 2 17.335.691a21.676 21.676 0 0 1-10.5 17.768 21.659 21.659 0 1 1-31.835-12.113 21.658 21.658 0 0 1 9.53-25.033z" class="cls-4" data-name="Path 335" transform="translate(-944.683 -78.04)"/>
            <path id="Path_336" d="M996.117 276.687a21.553 21.553 0 0 1-9.1 10.858 21.659 21.659 0 1 1-31.835-12.113c-1.388-4.467 41.802-1.015 40.935 1.255z" class="cls-5" data-name="Path 336" transform="translate(-944.683 -222.319)"/>
        </g>
        <g id="Group_2427" class="cls-2" data-name="Group 2427" transform="translate(.102 .095)">
            <path id="Path_337" d="M193.878 558.782a9.732 9.732 0 0 0 .522 1.513q4.958-1.9 10.028-3.653c-.029-.138-.057-.282-.094-.423a8.457 8.457 0 0 0-2.106-3.914 4.677 4.677 0 0 0-8.269 2 8.478 8.478 0 0 0-.081 4.477z" class="cls-3" data-name="Path 337" transform="translate(-147.357 -425.683)"/>
            <ellipse id="Ellipse_75" cx="5.378" cy="7.04" class="cls-3" data-name="Ellipse 75" rx="5.378" ry="7.04" transform="rotate(-13.72 511.392 -119.034)"/>
            <ellipse id="Ellipse_76" cx="5.378" cy="7.04" class="cls-3" data-name="Ellipse 76" rx="5.378" ry="7.04" transform="rotate(-13.72 475.643 -114.73)"/>
            <ellipse id="Ellipse_77" cx="5.378" cy="7.04" class="cls-3" data-name="Ellipse 77" rx="5.378" ry="7.04" transform="rotate(-13.72 439.882 -110.435)"/>
            <ellipse id="Ellipse_78" cx="5.378" cy="7.04" class="cls-3" data-name="Ellipse 78" rx="5.378" ry="7.04" transform="rotate(-13.72 404.112 -106.124)"/>
            <path id="Path_338" d="M65.525 108.5a25.537 25.537 0 0 0 1.247-3.34L52.5 106.247l14.874-3.512a25.784 25.784 0 0 0-4.36-19.944l-17.4 15.2L60.684 80a25.761 25.761 0 1 0-34.5 38.1 25.917 25.917 0 0 0-1.741 5.261l20.08 4.908-20.554-1.739a25.784 25.784 0 0 0 9.767 22.512 25.758 25.758 0 1 0 39.34-9.6 25.758 25.758 0 0 0-7.567-30.942z" class="cls-4" data-name="Path 338" transform="translate(-16.342 -72.085)"/>
            <path id="Path_339" d="M47.981 309.294a25.649 25.649 0 0 0 9.133 14.167 25.758 25.758 0 1 0 39.34-9.6c2.318-5.079-49.154-7.361-48.473-4.567z" class="cls-5" data-name="Path 339" transform="translate(-39.72 -246.503)"/>
        </g>
        <path id="Path_340" d="M350.211 185.7H97.422a2.255 2.255 0 0 0-2.252 2.26v154.71a4.548 4.548 0 0 0 4.54 4.556h248.213a4.548 4.548 0 0 0 4.54-4.556V187.96a2.257 2.257 0 0 0-2.252-2.26z" class="cls-6" data-name="Path 340" transform="translate(-74.498 -155.958)"/>
        <path id="Path_341" d="M354.456 222.51v146.454a4.5 4.5 0 0 1-4.5 4.5h-246.2a4.5 4.5 0 0 1-4.5-4.5V222.51z" class="cls-7" data-name="Path 341" transform="translate(-77.513 -183.162)"/>
        <path id="Path_342" d="M354.456 191.244v6.508H99.25v-6.508a2.234 2.234 0 0 1 2.234-2.234h250.738a2.234 2.234 0 0 1 2.234 2.234z" class="cls-8" data-name="Path 342" transform="translate(-77.513 -158.404)"/>
        <circle id="Ellipse_79" cx="1.044" cy="1.044" r="1.044" class="cls-9" data-name="Ellipse 79" transform="translate(24.737 33.868)"/>
        <circle id="Ellipse_80" cx="1.044" cy="1.044" r="1.044" class="cls-10" data-name="Ellipse 80" transform="translate(27.608 33.868)"/>
        <circle id="Ellipse_81" cx="1.044" cy="1.044" r="1.044" class="cls-11" data-name="Ellipse 81" transform="translate(30.478 33.868)"/>
        <path id="Rectangle_466" d="M0 0h1.044v1.566H0z" class="cls-12" data-name="Rectangle 466" transform="rotate(90 69.181 95.012)"/>
        <path id="Rectangle_467" d="M0 0h24.529v2.609H0z" class="cls-8" data-name="Rectangle 467" transform="translate(80.429 52.184)"/>
        <path id="Rectangle_468" d="M0 0h137.78v2.609H0z" class="cls-8" data-name="Rectangle 468" transform="translate(80.429 59.751)"/>
        <path id="Rectangle_469" d="M0 0h137.78v2.609H0z" class="cls-8" data-name="Rectangle 469" transform="translate(80.429 67.318)"/>
        <path id="Rectangle_470" d="M0 0h137.78v2.609H0z" class="cls-8" data-name="Rectangle 470" transform="translate(80.429 74.886)"/>
        <path id="Rectangle_471" d="M0 0h137.78v2.609H0z" class="cls-8" data-name="Rectangle 471" transform="translate(80.429 82.453)"/>
        <path id="Rectangle_472" d="M0 0h85.069v65.759H0z" class="cls-8" data-name="Rectangle 472" transform="translate(106.74 96.889)"/>
        <path id="Path_343" d="M561.274 493.071c-.11 0-.219.016-.331.018a1.459 1.459 0 0 0 .037-.464 4.439 4.439 0 0 0-.522-1.881 8.171 8.171 0 0 0-.647-.981c-.71-.981-1.367-1.983-2.148-2.91a4.679 4.679 0 0 1-.827-1.219 5.958 5.958 0 0 0-.282-.707 1.521 1.521 0 0 0-1.422-.692 2.258 2.258 0 0 0-1.44.762c-.219.235-.4.6-.217.864s.579.3.6.592c0 .157 0 .412-.159.462a2.835 2.835 0 0 0-.8.35.942.942 0 0 0-.42.731c.451.068.83-.311 1.24-.522a2.289 2.289 0 0 1 1.639-.06 1.535 1.535 0 0 1 .564.284 1.988 1.988 0 0 1 .365.491 5.237 5.237 0 0 1 .9 2.448l.23 1.467a9.484 9.484 0 0 0-1.012.136 6.361 6.361 0 0 1-2.7-.183 5.693 5.693 0 0 0-2.769-.522c-.441.1-.843.342-1.289.412a3.53 3.53 0 0 1-1.044-.055l-.718-.115a2.348 2.348 0 0 1-.06-.185 5.413 5.413 0 0 1-.2-1.61 2.87 2.87 0 0 0 2.453-4.068 2.434 2.434 0 0 0 .926-.921l-.183-.034.172-.261a.308.308 0 0 1-.05-.488.983.983 0 0 0-.493-.11c.055-.1-.034-.227-.141-.261a1.225 1.225 0 0 0-.339-.021 1.661 1.661 0 0 1-.485-.112 5.88 5.88 0 0 0-3.458-.4 4.325 4.325 0 0 0-1.38.725 1.8 1.8 0 0 0-.736 2.367 6.122 6.122 0 0 1 .368 1.328 4.218 4.218 0 0 1-.144 1.26 5.136 5.136 0 0 0 .759.17 4.3 4.3 0 0 1-.754 1.545 6.13 6.13 0 0 1-.522.577h-.031a12.668 12.668 0 0 1-1.566.193c-.553 0-1.1-.209-1.647-.17a4.471 4.471 0 0 0-.958.217 14.671 14.671 0 0 1-4.413.59l-.18.018.167-1.065a5.238 5.238 0 0 1 .9-2.448 1.988 1.988 0 0 1 .365-.491 1.543 1.543 0 0 1 .566-.284 2.281 2.281 0 0 1 1.636.06c.41.2.783.579 1.242.522a.95.95 0 0 0-.423-.731 2.836 2.836 0 0 0-.8-.35c-.151-.05-.172-.305-.159-.462.023-.292.438-.355.6-.6s0-.626-.217-.864a2.26 2.26 0 0 0-1.44-.759 1.516 1.516 0 0 0-1.419.692 5.533 5.533 0 0 0-.284.707 4.68 4.68 0 0 1-.827 1.219c-.783.926-1.438 1.928-2.148 2.909a8.68 8.68 0 0 0-.647.979 4.5 4.5 0 0 0-.522 1.884 1.472 1.472 0 0 0 .036.467.3.3 0 0 0-.029.117.542.542 0 0 0 .2.365 3.569 3.569 0 0 0 1.357.989 8.316 8.316 0 0 0 1.015.175 13.939 13.939 0 0 0 2.422.624 12.363 12.363 0 0 1 1.714-.149 3.038 3.038 0 0 1 1.847 1.368 4.7 4.7 0 0 1 .9 1.647 7.73 7.73 0 0 0 .459 2.189 1.493 1.493 0 0 1 .224.433 1.451 1.451 0 0 1-.159.71c-.329 1.01.391 2.088.316 3.131-.036.509-.261.989-.284 1.5-.039.655.227 1.388-.138 1.934.222-.115.446-.217.676-.308a29.031 29.031 0 0 0-2.012 9.9c.057 2.189.522 4.6-.736 6.4a2.527 2.527 0 0 0-.42.718 2.439 2.439 0 0 0 .065 1.086c.232 1.566-.613 3.108-.671 4.7a9.48 9.48 0 0 0 .094 1.464l.308 2.646a1.921 1.921 0 0 0-.84.417 1.029 1.029 0 0 0-.457 1.08 1.079 1.079 0 0 0 .814.545 2.04 2.04 0 0 1 .945.357 3.591 3.591 0 0 0 .284.282 1.044 1.044 0 0 0 .632.117c.4-.016.783-.05 1.19-.1a.472.472 0 0 0 .237-.076.522.522 0 0 0 .133-.391 5.18 5.18 0 0 0-.05-1.19 3.706 3.706 0 0 0-.057-.225 4.625 4.625 0 0 0 .29-1.044c.081-.522.094-1.067.128-1.6.078-1.362.261-2.714.47-4.066l.261-1.738a63.42 63.42 0 0 1 .261-1.715 53.9 53.9 0 0 1 2.249-9.107c.222-.634.6-1.378 1.271-1.4l.4.783a27.6 27.6 0 0 1 1.237 3.1c.522 1.354.344 2.936 1.044 4.209a5.8 5.8 0 0 1 .347.634 3.657 3.657 0 0 1 .214 1.062l.462 4.7a17.545 17.545 0 0 0 1.38 6.177 2.384 2.384 0 0 0 .209.35 6.071 6.071 0 0 0-.013.95.373.373 0 0 0 .371.467c.394.052.783.086 1.187.1a1.044 1.044 0 0 0 .631-.117 2.918 2.918 0 0 0 .287-.282 2.031 2.031 0 0 1 .942-.358 1.065 1.065 0 0 0 .814-.545 1.027 1.027 0 0 0-.457-1.08 1.826 1.826 0 0 0-.929-.431 1.548 1.548 0 0 1-.423-.034 2.09 2.09 0 0 0 .031-.522 2.613 2.613 0 0 1-.026-.621 3.7 3.7 0 0 1 .214-.611c.3-.924-.339-1.863-.564-2.808-.3-1.258.146-2.576.065-3.867-.125-2.028-1.54-3.93-1.164-5.926a13.512 13.512 0 0 0-.24-4.838l-1.044-5.952a6.6 6.6 0 0 0-.378-1.412 3.314 3.314 0 0 0 .569-.151 4.072 4.072 0 0 0 .138-2.022c-.078-.684-.261-1.352-.352-2.03a13.4 13.4 0 0 1-.136-1.647 6.632 6.632 0 0 1 .115-1.623 7.8 7.8 0 0 1 .488-1.365 24.224 24.224 0 0 1 1.827-3.653c1.073-.083 2.111-.175 3.181-.261a4.42 4.42 0 0 0 .762-.1 9.654 9.654 0 0 1 .973-.279 1.3 1.3 0 0 0 .36-.07c.235-.107.378-.407.637-.417a1.1 1.1 0 0 0 .292 0c.115-.037.172-.162.261-.261.162-.18.425-.217.637-.334a.924.924 0 0 0 .35-1.14z" class="cls-13" data-name="Path 343" transform="translate(-397.074 -375.81)"/>
        <circle id="Ellipse_82" cx="2.87" cy="2.87" r="2.87" class="cls-14" data-name="Ellipse 82" transform="translate(147.756 108.665)"/>
        <path id="Path_344" d="M577.708 504.263a7.163 7.163 0 0 1-.979.989 7.773 7.773 0 0 0 5.61.924c-.07-.2-.326-.224-.506-.324a1.094 1.094 0 0 1-.444-.7 5.467 5.467 0 0 1-.167-2.116 1.3 1.3 0 0 0 0-.522 1.119 1.119 0 0 0-.54-.595 5.327 5.327 0 0 0-1.3-.587c-.475-.141-.746-.206-.765.347a4.4 4.4 0 0 1-.906 2.583z" class="cls-14" data-name="Path 344" transform="translate(-430.397 -389.154)"/>
        <path id="Path_345" d="M617.374 496.422l-.292-1.853a6.889 6.889 0 0 0-.232-1.1 7.1 7.1 0 0 0-.668-1.336 1.972 1.972 0 0 0-.365-.488 1.536 1.536 0 0 0-.564-.284 2.273 2.273 0 0 0-1.634.063c-.41.2-.783.574-1.24.509a.934.934 0 0 1 .423-.728 2.759 2.759 0 0 1 .783-.35c.149-.047.172-.3.159-.459-.023-.29-.438-.352-.6-.59s0-.624.214-.861a2.246 2.246 0 0 1 1.438-.754 1.508 1.508 0 0 1 1.419.686 5.514 5.514 0 0 1 .284.7 4.7 4.7 0 0 0 .825 1.213c.783.921 1.438 1.918 2.145 2.894a9.041 9.041 0 0 1 .647.976 4.416 4.416 0 0 1 .522 1.874 1.168 1.168 0 0 1-.086.592.919.919 0 0 1-.783.449 2.776 2.776 0 0 1-.937-.188l-1.138-.384a.74.74 0 0 1-.365-.2.287.287 0 0 1 .045-.381z" class="cls-14" data-name="Path 345" transform="translate(-456.744 -379.508)"/>
        <path id="Path_346" d="M535.112 497.992l.29-1.853a7.192 7.192 0 0 1 .235-1.1 6.947 6.947 0 0 1 .668-1.336 1.847 1.847 0 0 1 .363-.485 1.476 1.476 0 0 1 .564-.284 2.28 2.28 0 0 1 1.636.06c.41.2.783.574 1.24.509a.94.94 0 0 0-.423-.728 2.79 2.79 0 0 0-.783-.35c-.149-.047-.172-.3-.159-.459.023-.29.436-.352.6-.59s0-.624-.217-.858a2.244 2.244 0 0 0-1.438-.757 1.511 1.511 0 0 0-1.419.686 5.5 5.5 0 0 0-.282.7 4.75 4.75 0 0 1-.825 1.213c-.783.921-1.438 1.918-2.148 2.894a8.876 8.876 0 0 0-.645.976 4.454 4.454 0 0 0-.522 1.874 1.183 1.183 0 0 0 .089.595.921.921 0 0 0 .8.446 2.7 2.7 0 0 0 .934-.188l1.14-.373a.724.724 0 0 0 .363-.2.287.287 0 0 0-.061-.392z" class="cls-14" data-name="Path 346" transform="translate(-397.223 -380.668)"/>
        <path id="Path_347" d="M612.846 680.484a1.023 1.023 0 0 1 .457 1.075 1.081 1.081 0 0 1-.814.543 2.055 2.055 0 0 0-.942.355 2.88 2.88 0 0 1-.284.269 1.027 1.027 0 0 1-.632.117 13.7 13.7 0 0 1-1.187-.1.473.473 0 0 1-.237-.076.5.5 0 0 1-.13-.389 5 5 0 0 1 .047-1.185 1.7 1.7 0 0 1 .571-1.01c.3-.235 1.221-.932 1.566-.485.091.12.055.284.183.383s.329.044.475.063a1.826 1.826 0 0 1 .927.44z" class="cls-3" data-name="Path 347" transform="translate(-454.29 -520.866)"/>
        <path id="Path_348" d="M554.588 681.033a1.023 1.023 0 0 0-.457 1.075 1.065 1.065 0 0 0 .811.543 2.047 2.047 0 0 1 .942.355 2.9 2.9 0 0 0 .287.282 1.044 1.044 0 0 0 .629.117c.4-.016.783-.05 1.187-.1a.463.463 0 0 0 .237-.076.5.5 0 0 0 .133-.389 5.109 5.109 0 0 0-.05-1.182 1.683 1.683 0 0 0-.571-1.012c-.3-.235-1.219-.932-1.566-.485-.091.12-.055.287-.185.384s-.326.044-.475.063a1.842 1.842 0 0 0-.922.425z" class="cls-3" data-name="Path 348" transform="translate(-413.664 -521.279)"/>
        <path id="Path_349" d="M561.7 575.789c-1.177 3.392-2.32 6.9-2.231 10.5.057 2.179.522 4.58-.733 6.367a2.49 2.49 0 0 0-.42.715 2.457 2.457 0 0 0 .063 1.08c.235 1.566-.608 3.095-.668 4.676a9.393 9.393 0 0 0 .094 1.456l.326 2.787c.11.955 1.341 1.346 2.291 1.479a3.551 3.551 0 0 0 .806-1.876c.081-.522.094-1.062.125-1.592.081-1.357.277-2.7.47-4.047l.261-1.73c.084-.569.164-1.138.261-1.707a53.664 53.664 0 0 1 2.252-9.037c.222-.634.6-1.372 1.268-1.391l.4.767a27.155 27.155 0 0 1 1.234 3.084c.522 1.349.342 2.92 1.044 4.191a5.26 5.26 0 0 1 .344.629 3.627 3.627 0 0 1 .214 1.044l.462 4.666a17.369 17.369 0 0 0 1.375 6.15 1.427 1.427 0 0 0 .436.574 1.182 1.182 0 0 0 1.3-.143 2.226 2.226 0 0 0 .9-1.926 2.885 2.885 0 0 1-.026-.618 4.106 4.106 0 0 1 .214-.608c.3-.919-.337-1.853-.564-2.792-.3-1.253.146-2.562.068-3.849-.125-2.02-1.537-3.914-1.164-5.9a13.439 13.439 0 0 0-.237-4.814l-1.05-5.924a3.252 3.252 0 0 0-1.25-2.445 3.105 3.105 0 0 0-1.521-.261c-2.158-.003-4.22.297-6.344.495z" class="cls-3" data-name="Path 349" transform="translate(-416.337 -443.879)"/>
        <path id="Path_350" d="M561.414 516.833a3.733 3.733 0 0 1-2.192-.454 4.406 4.406 0 0 0-.806-.423 3.664 3.664 0 0 0-1.644.06 6.419 6.419 0 0 1-2.69-.183 5.717 5.717 0 0 0-2.766-.522c-.441.1-.84.339-1.286.41a3.421 3.421 0 0 1-1.044-.055l-2.975-.464a8.134 8.134 0 0 0-2.041-.146 13.2 13.2 0 0 1-1.566.2c-.551 0-1.093-.209-1.644-.172a4.482 4.482 0 0 0-.955.217 14.7 14.7 0 0 1-4.4.587 6.61 6.61 0 0 0-3.311 1.148.522.522 0 0 0-.261.363.534.534 0 0 0 .206.36 3.534 3.534 0 0 0 1.354.986 8.218 8.218 0 0 0 1.013.172 13.88 13.88 0 0 0 2.416.624 12.332 12.332 0 0 1 1.712-.149 3.042 3.042 0 0 1 1.827 1.354 4.742 4.742 0 0 1 .9 1.639 7.569 7.569 0 0 0 .457 2.179 1.509 1.509 0 0 1 .224.431 1.435 1.435 0 0 1-.159.707c-.329 1 .391 2.067.316 3.131-.036.5-.261.984-.284 1.487-.037.655.227 1.383-.138 1.926a9.354 9.354 0 0 1 4.554-.994 5.714 5.714 0 0 1 .783.073 10.966 10.966 0 0 1 1.482.412 5.251 5.251 0 0 0 3.366.2 4 4 0 0 0 .136-2.012c-.081-.678-.248-1.346-.35-2.022a13.244 13.244 0 0 1-.136-1.639 6.575 6.575 0 0 1 .115-1.615 7.654 7.654 0 0 1 .488-1.357 23.913 23.913 0 0 1 1.827-3.653c1.07-.086 2.106-.177 3.176-.261a4.931 4.931 0 0 0 .759-.1 9.768 9.768 0 0 1 .971-.277 1.281 1.281 0 0 0 .36-.073c.235-.107.381-.4.637-.412a1.232 1.232 0 0 0 .292 0c.115-.034.17-.162.261-.261.162-.18.425-.217.637-.331a.919.919 0 0 0 .384-1.083z" class="cls-4" data-name="Path 350" transform="translate(-397.213 -399.36)"/>
        <path id="Path_351" d="M583.135 489.091a.522.522 0 0 0 .592.036.736.736 0 0 0 .219-.4 9.246 9.246 0 0 0 .227-.992 1.089 1.089 0 0 1 .13-.415c.191-.292.6-.308.924-.441a2.4 2.4 0 0 0 .947-.929l-.18-.036.17-.261a.3.3 0 0 1-.047-.483.962.962 0 0 0-.5-.112c.055-.1-.034-.224-.141-.261a1.113 1.113 0 0 0-.337-.018 1.666 1.666 0 0 1-.485-.115 5.874 5.874 0 0 0-3.45-.4 4.29 4.29 0 0 0-1.38.723 1.793 1.793 0 0 0-.733 2.349 6.082 6.082 0 0 1 .365 1.318 4.2 4.2 0 0 1-.141 1.258 4.1 4.1 0 0 0 .952.185 1.367 1.367 0 0 0 .913-.261 5.187 5.187 0 0 0 .621-.853.885.885 0 0 1 .754-.4c.296.049.345.344.58.508z" class="cls-3" data-name="Path 351" transform="translate(-432.011 -376.519)"/>
        <path id="Path_352" d="M408.679 692h-3.056a.4.4 0 0 0 0 .783h.611v5.185h-10.456a.29.29 0 0 0-.232-.141h-3.053a.4.4 0 0 0 0 .783h.611v5.326h-10.1a.323.323 0 0 0-.287-.282h-3.05a.4.4 0 0 0 0 .783h.305v5.48h-10.26a.262.262 0 0 0-.125-.034h-3.053a.4.4 0 0 0 0 .783h.305v5.219h-10.133a.292.292 0 0 0-.261-.177h-3.053a.4.4 0 0 0 0 .783h.305v5.78h69.028V692z" class="cls-3" data-name="Path 352" transform="translate(-265.101 -530.141)"/>
        <path id="Path_353" d="M162.182 284.515a7.229 7.229 0 0 0-1.02-1.091.877.877 0 0 1 .1-1.4c.125-.081.248-.167.371-.261 1.425-1.083 2.145-2.536 1.6-3.249s-2.135-.41-3.559.673a5.5 5.5 0 0 0-.472.394.874.874 0 0 1-1.367-.261 7.383 7.383 0 0 0-.7-1.117c-1.268-1.67-2.97-2.513-3.8-1.881s-.483 2.5.783 4.175a7.193 7.193 0 0 0 .822.913.882.882 0 0 1-.193 1.407c-1.566.9-2.45 2.244-2.007 3.019s2.067.678 3.619-.214a6.816 6.816 0 0 0 .694-.462.882.882 0 0 1 1.331.324 6.853 6.853 0 0 0 .783 1.3c1.266 1.67 2.97 2.513 3.8 1.881s.481-2.478-.785-4.15z" class="cls-1" data-name="Path 353" transform="translate(-116.958 -222.78)"/>
        <path id="Path_354" d="M885.5 449.852a7.1 7.1 0 0 0 .749-1.292.872.872 0 0 1 1.359-.313c.115.094.235.185.357.277 1.451 1.044 3.053 1.3 3.575.587s-.23-2.161-1.68-3.21q-.261-.185-.522-.337a.874.874 0 0 1-.144-1.386 7.094 7.094 0 0 0 .861-1c1.229-1.7 1.537-3.572.692-4.175s-2.531.261-3.76 1.97a7.368 7.368 0 0 0-.634 1.044.882.882 0 0 1-1.4.227c-1.3-1.224-2.87-1.688-3.473-1.044s-.044 2.174 1.263 3.392a6.313 6.313 0 0 0 .644.522.882.882 0 0 1 .076 1.367 7.011 7.011 0 0 0-1.025 1.146c-1.229 1.7-1.537 3.572-.689 4.175s2.527-.248 3.751-1.95z" class="cls-1" data-name="Path 354" transform="translate(-655.446 -343.024)"/>
        <ellipse id="Ellipse_83" cx="8.82" cy="1.696" class="cls-4" data-name="Ellipse 83" rx="8.82" ry="1.696" transform="translate(222.574 191.524)"/>
        <ellipse id="Ellipse_84" cx="1.028" cy="1.344" class="cls-3" data-name="Ellipse 84" rx="1.028" ry="1.344" transform="translate(230.22 191.156)"/>
        <ellipse id="Ellipse_85" cx="1.028" cy="1.344" class="cls-3" data-name="Ellipse 85" rx="1.028" ry="1.344" transform="translate(230.22 189.512)"/>
        <ellipse id="Ellipse_86" cx="1.028" cy="1.344" class="cls-3" data-name="Ellipse 86" rx="1.028" ry="1.344" transform="translate(230.22 187.871)"/>
        <ellipse id="Ellipse_87" cx="1.028" cy="1.344" class="cls-3" data-name="Ellipse 87" rx="1.028" ry="1.344" transform="translate(230.22 186.227)"/>
        <ellipse id="Ellipse_88" cx="1.028" cy="1.344" class="cls-3" data-name="Ellipse 88" rx="1.028" ry="1.344" transform="translate(230.22 184.583)"/>
        <ellipse id="Ellipse_89" cx="1.028" cy="1.344" class="cls-3" data-name="Ellipse 89" rx="1.028" ry="1.344" transform="translate(230.22 182.941)"/>
        <ellipse id="Ellipse_90" cx="1.028" cy="1.344" class="cls-3" data-name="Ellipse 90" rx="1.028" ry="1.344" transform="translate(230.22 181.297)"/>
        <path id="Path_355" d="M891.964 706.049a5.173 5.173 0 0 0 .381-.564l-2.7-.444 2.917.024a4.916 4.916 0 0 0 .094-3.9l-3.914 2.03 3.611-2.654a4.919 4.919 0 1 0-8.126 5.506 5.043 5.043 0 0 0-.561.9l3.5 1.827-3.737-1.253a64.295 64.295 0 0 1 1.313 11.272 9.959 9.959 0 0 0 7.2-12.736z" class="cls-4" data-name="Path 355" transform="translate(-656.872 -534.652)"/>
        <path id="Path_356" d="M883.178 740a19.775 19.775 0 0 1 1.574 9.7 4.919 4.919 0 0 0 7.2-6.653c.669-.847-8.774-3.602-8.774-3.047z" class="cls-5" data-name="Path 356" transform="translate(-656.872 -565.558)"/>
        <ellipse id="Ellipse_91" cx="3.992" cy=".767" class="cls-4" data-name="Ellipse 91" rx="3.992" ry=".767" transform="translate(66.659 192.857)"/>
        <ellipse id="Ellipse_92" cx=".464" cy=".608" class="cls-3" data-name="Ellipse 92" rx=".464" ry=".608" transform="translate(70.121 192.69)"/>
        <ellipse id="Ellipse_93" cx=".464" cy=".608" class="cls-3" data-name="Ellipse 93" rx=".464" ry=".608" transform="translate(70.121 191.947)"/>
        <ellipse id="Ellipse_94" cx=".464" cy=".608" class="cls-3" data-name="Ellipse 94" rx=".464" ry=".608" transform="translate(70.121 191.203)"/>
        <ellipse id="Ellipse_95" cx=".464" cy=".608" class="cls-3" data-name="Ellipse 95" rx=".464" ry=".608" transform="translate(70.121 190.459)"/>
        <ellipse id="Ellipse_96" cx=".464" cy=".608" class="cls-3" data-name="Ellipse 96" rx=".464" ry=".608" transform="translate(70.121 189.715)"/>
        <ellipse id="Ellipse_97" cx=".464" cy=".608" class="cls-3" data-name="Ellipse 97" rx=".464" ry=".608" transform="translate(70.121 188.972)"/>
        <ellipse id="Ellipse_98" cx=".464" cy=".608" class="cls-3" data-name="Ellipse 98" rx=".464" ry=".608" transform="translate(70.121 188.228)"/>
        <path id="Path_357" d="M281.821 765.642a2.107 2.107 0 0 0 .175-.261l-1.221-.2h1.32a2.228 2.228 0 0 0 .2-.932 2.2 2.2 0 0 0-.162-.832l-1.772.919 1.634-1.2a6.246 6.246 0 0 0-3.938 2.9l1.584.825-1.691-.569a27.83 27.83 0 0 1 .6 5.1 4.514 4.514 0 0 0 3.263-5.77z" class="cls-4" data-name="Path 357" transform="translate(-209.497 -581.897)"/>
        <path id="Path_358" d="M277.866 781.047a8.814 8.814 0 0 1 .714 4.394 2.228 2.228 0 0 0 3.262-3.017c.301-.37-3.976-1.624-3.976-1.377z" class="cls-5" data-name="Path 358" transform="translate(-209.52 -595.927)"/>
    </g>
</svg>
